<?xml version="1.0" encoding="utf-8"?>
<!-- Generator: Adobe Illustrator 17.0.0, SVG Export Plug-In . SVG Version: 6.00 Build 0)  -->
<!DOCTYPE svg PUBLIC "-//W3C//DTD SVG 1.1//EN" "http://www.w3.org/Graphics/SVG/1.1/DTD/svg11.dtd">
<svg version="1.1" id="Isolation_Mode" xmlns="http://www.w3.org/2000/svg" xmlns:xlink="http://www.w3.org/1999/xlink" x="0px"
	 y="0px" width="336.122px" height="149.371px" viewBox="0 0 336.122 149.371" enable-background="new 0 0 336.122 149.371"
	 xml:space="preserve">
<g>
	<g>
		<g>
			<polygon fill="#591902" points="133.213,42.67 131.496,47.58 133.6,48.52 134.975,47.598 			"/>
			<polygon fill="#591902" points="133.212,75.67 135.012,70.887 133.258,70.124 131.562,71.19 			"/>
			<polygon fill="#591902" points="121.737,57.557 116.712,59.172 121.612,61.002 122.622,59.499 			"/>
			<polygon fill="#591902" points="133.794,53.798 123.03,48.987 126.654,56.941 127.905,59.688 126.538,61.721 118.081,74.303 
				133.087,64.869 135.718,66.014 143.394,69.352 140.115,61.654 138.976,58.981 148.345,44.039 			"/>
			<polygon fill="#591902" points="144.988,60.949 149.712,59.171 145.144,57.691 144.225,59.157 			"/>
		</g>
		<g>
			<circle fill="#591902" cx="290.519" cy="138.826" r="1.969"/>
			<path fill="#591902" d="M315.985,128.387c-0.488-1.117-1.168-2.104-2.039-2.959c-0.871-0.854-1.908-1.537-3.109-2.051
				c-1.201-0.514-2.514-0.77-3.939-0.77c-1.584,0-3.049,0.348-4.397,1.043c-1.346,0.695-2.441,1.602-3.285,2.719v-3.455H296.8
				v25.103h2.693v-10.979c0.816,1.164,1.9,2.127,3.246,2.891c1.346,0.764,2.891,1.145,4.633,1.145c1.373,0,2.635-0.244,3.783-0.734
				c1.148-0.49,2.137-1.156,2.969-2c0.832-0.844,1.473-1.824,1.922-2.941c0.447-1.117,0.672-2.303,0.672-3.557
				C316.718,130.656,316.474,129.504,315.985,128.387z M313.431,134.492c-0.342,0.854-0.838,1.619-1.484,2.291
				c-0.646,0.672-1.42,1.215-2.316,1.625c-0.898,0.41-1.9,0.615-3.01,0.615c-0.766,0-1.512-0.113-2.236-0.342
				c-0.727-0.229-1.4-0.541-2.02-0.941c-0.621-0.398-1.176-0.871-1.664-1.418c-0.488-0.549-0.891-1.141-1.207-1.779v-5.473
				c0.103-0.592,0.389-1.156,0.85-1.691c0.463-0.537,1.023-1.004,1.684-1.402c0.66-0.399,1.359-0.719,2.1-0.959
				c0.738-0.238,1.451-0.359,2.139-0.359c1.082,0,2.092,0.195,3.029,0.582c0.936,0.389,1.748,0.912,2.436,1.574
				c0.685,0.66,1.227,1.424,1.623,2.291c0.397,0.867,0.594,1.777,0.594,2.736C313.946,132.754,313.774,133.637,313.431,134.492z"/>
			<path fill="#591902" d="M335.606,133.824c-0.344-0.523-0.852-0.969-1.523-1.334c-0.674-0.363-1.512-0.684-2.516-0.957
				c-1.004-0.273-2.164-0.547-3.484-0.82c-0.924-0.182-1.709-0.359-2.355-0.531c-0.648-0.17-1.182-0.363-1.605-0.58
				c-0.422-0.217-0.725-0.473-0.91-0.77c-0.185-0.297-0.277-0.684-0.277-1.164c0-0.568,0.133-1.064,0.396-1.486
				c0.264-0.422,0.627-0.77,1.09-1.043c0.461-0.273,0.996-0.475,1.604-0.6c0.605-0.125,1.266-0.188,1.978-0.188
				c1.19,0,2.33,0.17,3.426,0.514c1.096,0.342,2.025,0.854,2.793,1.539l1.307-1.369c-0.793-0.728-1.836-1.316-3.129-1.762
				c-1.293-0.443-2.732-0.666-4.316-0.666c-1.057,0-2.053,0.113-2.99,0.342c-0.938,0.229-1.756,0.564-2.455,1.01
				c-0.699,0.443-1.254,1.008-1.662,1.691c-0.41,0.684-0.615,1.471-0.615,2.361c0,0.705,0.139,1.293,0.416,1.76
				c0.277,0.469,0.699,0.861,1.267,1.18c0.568,0.32,1.287,0.605,2.158,0.855c0.871,0.252,1.9,0.502,3.088,0.752
				c1.031,0.205,1.934,0.406,2.713,0.6c0.779,0.193,1.426,0.416,1.941,0.666c0.514,0.252,0.904,0.543,1.168,0.873
				c0.264,0.33,0.396,0.746,0.396,1.248c0,1.072-0.496,1.898-1.486,2.479c-0.988,0.582-2.316,0.873-3.979,0.873
				c-1.373,0-2.66-0.205-3.861-0.615c-1.201-0.41-2.383-1.027-3.545-1.848l-1.227,1.574c1.107,0.865,2.428,1.527,3.959,1.982
				c1.531,0.457,3.102,0.684,4.713,0.684c2.455,0,4.408-0.479,5.861-1.436c1.451-0.957,2.178-2.258,2.178-3.898
				C336.122,134.988,335.95,134.35,335.606,133.824z"/>
		</g>
	</g>
	<g>
		<path fill="#F2B460" d="M136.455,32.888c-3.977-5.891-8.819-11.241-14.454-15.882c-4.726-3.891-9.892-7.143-15.366-9.742V7.132
			c-8.909-4.202-18.658-6.63-28.751-7.056c-0.064-0.004-0.129-0.008-0.197-0.012C76.676,0.025,75.657,0,74.64,0h-0.076
			c-1.021,0-2.039,0.025-3.051,0.065c-0.064,0.004-0.129,0.008-0.193,0.012C61.223,0.502,51.475,2.93,42.565,7.132v0.132
			c-5.472,2.6-10.642,5.852-15.363,9.742C11.817,29.676,2.284,47.606,0.356,67.49c-1.922,19.888,3.994,39.312,16.664,54.693
			c12.244,14.873,29.54,24.277,48.441,26.614c0.312,0.04,0.624,0.079,0.939,0.114h0.021c2.621,0.302,5.288,0.459,8.023,0.459h0.309
			c2.735,0,5.407-0.157,8.024-0.459H82.8c0.315-0.035,0.627-0.074,0.939-0.114c7.901-0.978,15.515-3.206,22.604-6.536v-37.596
			c-8.212,8.729-19.615,13.699-31.743,13.736c-13.104-0.04-25.369-5.83-33.666-15.908c-7.414-9.004-10.881-20.375-9.752-32.021
			c1.13-11.641,6.708-22.143,15.707-29.557c6.815-5.607,15.206-9.014,23.965-9.784c0.032-0.004,0.061-0.004,0.093-0.007
			c0.566-0.051,1.133-0.086,1.699-0.111c0.434-0.018,0.868-0.029,1.302-0.033c0.219-0.006,0.438-0.014,0.652-0.014
			c0.219,0,0.435,0.008,0.652,0.014c0.434,0.004,0.868,0.016,1.302,0.033c0.566,0.025,1.133,0.06,1.699,0.111
			c0.032,0.003,0.064,0.003,0.098,0.007c8.755,0.771,17.145,4.177,23.96,9.784c2.581,2.125,4.874,4.507,6.864,7.094
			c1.271-2.746,3.037-5.316,5.298-7.578C120.464,34.441,128.634,31.932,136.455,32.888z"/>
		<path fill="#F2B460" d="M116.939,80.288l0.002,60.813h31.998V80.287C139.515,87.44,126.365,87.44,116.939,80.288z"/>
		<path fill="#F2B460" d="M193.382,90.543l-0.006-18.142h30.98l-19-27.826h-11.98V33.328h-27.439v11.247h-10.602
			c5.525,8.37,5.801,19.206,0.835,27.826h8.768v18.907l0.038,3.77h0.175c2.317,28.943,26.628,53.902,55.836,53.902h4.77v-28.607
			h-4.77C205.765,120.373,193.382,105.889,193.382,90.543z"/>
		<path fill="#F2B460" d="M290.864,113.883l1.367-3.16l29.566-66.148h-33.066l-12.686,32.747l-19.709-32.747h-36.43l41.625,63.226
			c-5.111,6.555-12.91,12.469-21.307,12.588h-2.717v28.627h2.803c19.9-0.178,37.822-12.797,47.713-29.633l2.019-3.756
			C290.327,115.051,290.601,114.469,290.864,113.883z"/>
	</g>
</g>
</svg>
