<?xml version="1.0" encoding="utf-8"?>
<!-- Generator: Adobe Illustrator 17.0.0, SVG Export Plug-In . SVG Version: 6.00 Build 0)  -->
<!DOCTYPE svg PUBLIC "-//W3C//DTD SVG 1.1//EN" "http://www.w3.org/Graphics/SVG/1.1/DTD/svg11.dtd">
<svg version="1.1" id="Layer_1" xmlns="http://www.w3.org/2000/svg" xmlns:xlink="http://www.w3.org/1999/xlink" x="0px" y="0px"
	 width="11px" height="6px" viewBox="0 0 11 6" enable-background="new 0 0 11 6" xml:space="preserve">
<text transform="matrix(1 0 0 1 -95.5 -80)" font-family="'MyriadPro-Regular'" font-size="12">.Polygon_1 {</text>
<text transform="matrix(1 0 0 1 -95.5 -65.6)" font-family="'MyriadPro-Regular'" font-size="12">  border-width: 0.27px;</text>
<text transform="matrix(1 0 0 1 -95.5 -51.2)" font-family="'MyriadPro-Regular'" font-size="12">  border-color: rgb( 255, 255, 255 );</text>
<text transform="matrix(1 0 0 1 -95.5 -36.8)" font-family="'MyriadPro-Regular'" font-size="12">  border-style: solid;</text>
<text transform="matrix(1 0 0 1 -95.5 -22.4)" font-family="'MyriadPro-Regular'" font-size="12">  background-color: rgb( 203, 202, 202 );</text>
<text transform="matrix(1 0 0 1 -95.5 -8)" font-family="'MyriadPro-Regular'" font-size="12">  position: absolute;</text>
<text transform="matrix(1 0 0 1 -95.5 6.4)" font-family="'MyriadPro-Regular'" font-size="12">  left: 966px;</text>
<text transform="matrix(1 0 0 1 -95.5 20.8)" font-family="'MyriadPro-Regular'" font-size="12">  top: 836px;</text>
<text transform="matrix(1 0 0 1 -95.5 35.2)" font-family="'MyriadPro-Regular'" font-size="12">  width: 11px;</text>
<text transform="matrix(1 0 0 1 -95.5 49.6)" font-family="'MyriadPro-Regular'" font-size="12">  height: 6px;</text>
<text transform="matrix(1 0 0 1 -95.5 64)" font-family="'MyriadPro-Regular'" font-size="12">  z-index: 45;</text>
<text transform="matrix(1 0 0 1 -95.5 78.4)" font-family="'MyriadPro-Regular'" font-size="12">}</text>
<polygon fill="#548F96" points="5.5,5.969 0,0.031 11,0.031 "/>
<path d="M5.5,6"/>
</svg>
